<svg width="100" height="100" viewBox="0 0 100 100" fill="none" xmlns="http://www.w3.org/2000/svg">
  <!-- 背景圆形渐变 -->
  <defs>
    <radialGradient id="bgGradient" cx="50%" cy="50%" r="50%">
      <stop offset="0%" style="stop-color:#ff6b6b;stop-opacity:0.8" />
      <stop offset="50%" style="stop-color:#4ecdc4;stop-opacity:0.6" />
      <stop offset="100%" style="stop-color:#45b7d1;stop-opacity:0.4" />
    </radialGradient>
    <linearGradient id="musicGradient" x1="0%" y1="0%" x2="100%" y2="100%">
      <stop offset="0%" style="stop-color:#ff9a9e" />
      <stop offset="50%" style="stop-color:#fecfef" />
      <stop offset="100%" style="stop-color:#fecfef" />
    </linearGradient>
  </defs>
  
  <!-- 主背景圆 -->
  <circle cx="50" cy="50" r="48" fill="url(#bgGradient)" stroke="currentColor" stroke-width="1" opacity="0.9"/>
  
  <!-- 音符主体 -->
  <g transform="translate(50,50)">
    <!-- 大音符 -->
    <ellipse cx="-8" cy="12" rx="6" ry="4" fill="url(#musicGradient)" transform="rotate(-15)"/>
    <rect x="-2" y="-8" width="2" height="20" fill="url(#musicGradient)"/>
    
    <!-- 小音符 -->
    <ellipse cx="8" cy="8" rx="4" ry="3" fill="url(#musicGradient)" transform="rotate(15)"/>
    <rect x="12" y="-12" width="1.5" height="20" fill="url(#musicGradient)"/>
    
    <!-- 连接线 -->
    <path d="M 0 -8 Q 8 -12 12 -12" stroke="url(#musicGradient)" stroke-width="1.5" fill="none"/>
    
    <!-- 装饰音波 -->
    <path d="M -20 -5 Q -15 -8 -10 -5 Q -5 -2 0 -5" stroke="currentColor" stroke-width="1" fill="none" opacity="0.6"/>
    <path d="M 15 0 Q 20 -3 25 0 Q 30 3 35 0" stroke="currentColor" stroke-width="1" fill="none" opacity="0.6"/>
    
    <!-- 小星星装饰 -->
    <g opacity="0.8">
      <path d="M -18 8 L -16 10 L -18 12 L -20 10 Z" fill="currentColor"/>
      <path d="M 22 -8 L 24 -6 L 22 -4 L 20 -6 Z" fill="currentColor"/>
      <path d="M -5 -18 L -3 -16 L -5 -14 L -7 -16 Z" fill="currentColor"/>
    </g>
  </g>
  
  <!-- 外圈装饰 -->
  <circle cx="50" cy="50" r="46" stroke="currentColor" stroke-width="0.5" fill="none" opacity="0.3" stroke-dasharray="2,2"/>
</svg>